<?xml version="1.0" standalone="no"?>
<!DOCTYPE svg PUBLIC "-//W3C//DTD SVG 20010904//EN"
 "http://www.w3.org/TR/2001/REC-SVG-20010904/DTD/svg10.dtd">
<svg version="1.0" xmlns="http://www.w3.org/2000/svg"
 width="4117.000000pt" height="2689.000000pt" viewBox="0 0 4117.000000 2689.000000"
 preserveAspectRatio="xMidYMid meet">

<g transform="translate(0.000000,2689.000000) scale(0.100000,-0.100000)"
fill="#000000" stroke="none">
<path d="M29002 26745 c-426 -874 -1123 -1630 -1971 -2139 -205 -123 -663
-350 -675 -334 -2 1 1 50 6 108 14 150 3 688 -16 840 -53 416 -151 802 -295
1165 -56 140 -220 485 -231 485 -4 0 -5 -13 -2 -29 22 -150 -334 -465 -1038
-918 -464 -299 -1232 -744 -1621 -938 -393 -197 -946 -376 -1578 -511 l-174
-37 -191 12 c-1480 91 -2945 -141 -4294 -681 -1050 -419 -1986 -995 -2871
-1765 -198 -172 -714 -689 -896 -898 -708 -812 -1261 -1694 -1676 -2673 -71
-167 -213 -542 -245 -644 l-18 -58 -1218 0 -1218 0 0 -3135 0 -3135 1530 0
1529 0 4 1808 c4 1967 2 1892 63 2392 401 3290 2651 6082 5787 7184 1268 446
2646 591 3995 420 1737 -218 3330 -940 4686 -2123 167 -146 618 -597 765 -766
1181 -1354 1897 -2939 2120 -4695 65 -505 71 -725 71 -2587 l0 -1633 1535 0
1535 0 0 3135 0 3135 -1224 0 -1223 0 -53 153 c-345 994 -906 2006 -1584 2857
l-107 134 58 16 c138 39 262 120 391 255 125 130 233 297 357 550 322 657 512
1351 587 2150 20 215 17 874 -5 1095 -56 549 -159 1018 -331 1503 -64 179
-176 447 -186 447 -4 0 -39 -65 -78 -145z"/>
<path d="M13700 16992 c0 -6 541 -1503 1201 -3328 661 -1826 1208 -3338 1216
-3362 l15 -42 1580 2 1579 3 305 740 c168 407 306 747 307 756 1 9 -1159 994
-3088 2620 -1700 1433 -3096 2608 -3103 2613 -6 4 -12 3 -12 -2z"/>
<path d="M24380 14389 c-1702 -1436 -3096 -2614 -3098 -2618 -1 -4 137 -344
306 -756 l309 -750 1579 -3 1580 -2 1217 3364 c669 1850 1217 3367 1217 3370
0 3 -3 6 -7 5 -5 0 -1401 -1175 -3103 -2610z"/>
<path d="M7720 14590 l0 -2280 400 0 400 0 0 2280 0 2280 -400 0 -400 0 0
-2280z"/>
<path d="M32660 14590 l0 -2280 395 0 395 0 0 2280 0 2280 -395 0 -395 0 0
-2280z"/>
<path d="M19900 9170 l0 -370 190 0 190 0 0 370 0 370 -190 0 -190 0 0 -370z"/>
<path d="M20910 9170 l0 -370 190 0 190 0 0 370 0 370 -190 0 -190 0 0 -370z"/>
<path d="M17685 7943 c-169 -36 -317 -123 -470 -277 -193 -195 -343 -450 -444
-754 -185 -559 -200 -1350 -37 -1943 142 -516 403 -910 702 -1058 101 -50 190
-72 309 -78 212 -10 364 47 517 195 l88 85 42 -17 c76 -28 165 -87 255 -168
96 -85 124 -98 221 -98 71 0 115 18 128 52 4 13 11 451 14 973 6 1082 -3 985
97 1032 75 36 86 63 81 199 -3 92 -6 106 -26 126 l-23 23 -609 0 -609 0 -23
-22 c-19 -19 -23 -36 -26 -117 -5 -119 13 -165 85 -211 26 -16 56 -43 67 -58
21 -28 21 -36 21 -775 l0 -747 -30 -60 c-36 -73 -84 -105 -158 -105 -80 0
-136 42 -164 124 -17 48 -18 139 -18 1526 0 1379 1 1479 18 1544 36 141 83
214 169 262 47 26 62 29 138 29 101 0 143 -18 228 -98 74 -71 145 -181 269
-419 58 -111 118 -221 134 -245 36 -52 75 -66 186 -67 111 0 137 17 141 95 4
78 -178 981 -205 1018 -30 40 -61 51 -149 51 -93 0 -124 -16 -150 -78 -18 -45
-52 -82 -73 -82 -9 0 -48 18 -86 41 -96 56 -167 84 -257 103 -95 20 -259 19
-353 -1z"/>
<path d="M29927 7945 c-146 -37 -303 -141 -408 -271 -219 -268 -369 -660 -423
-1099 -52 -421 -44 -1011 19 -1400 73 -454 254 -882 465 -1096 299 -304 792
-335 1083 -68 173 158 255 344 264 599 5 156 -6 192 -67 222 -40 20 -180 25
-241 8 -78 -22 -111 -96 -124 -275 -8 -116 -38 -245 -72 -308 -36 -65 -81 -99
-141 -104 -85 -8 -143 53 -162 173 -13 79 -13 2920 0 3033 19 168 63 241 146
241 38 0 51 -6 87 -40 86 -79 135 -202 197 -500 60 -285 86 -322 234 -323 121
0 156 33 156 152 0 61 -56 868 -65 941 -9 67 -24 109 -45 120 -10 6 -62 10
-116 10 l-97 0 -64 -65 c-35 -36 -69 -65 -76 -65 -7 0 -41 18 -77 40 -111 68
-159 83 -295 86 -82 2 -138 -1 -178 -11z"/>
<path d="M8063 7930 c-14 -6 -26 -24 -34 -52 -54 -203 -87 -263 -204 -384
-127 -130 -218 -182 -411 -233 -35 -9 -42 -16 -48 -42 -10 -49 -7 -235 4 -263
9 -25 13 -26 85 -26 l75 0 0 -1353 c0 -1306 1 -1356 19 -1429 24 -91 55 -156
110 -226 l41 -52 410 0 c255 0 419 4 436 10 l27 11 -5 100 c-6 111 -17 138
-78 174 -58 35 -107 89 -119 130 -8 28 -11 422 -11 1338 l0 1297 100 0 c140 0
140 0 140 174 0 133 0 135 -26 155 -23 18 -41 21 -120 21 l-93 0 -3 316 c-3
299 -4 316 -22 330 -23 16 -235 19 -273 4z"/>
<path d="M36530 7927 c-20 -10 -29 -29 -48 -101 -12 -49 -38 -119 -58 -156
-97 -185 -314 -359 -497 -396 -40 -8 -77 -22 -84 -31 -18 -23 -18 -284 -1
-301 7 -7 40 -12 80 -12 l67 0 3 -1362 3 -1363 23 -75 c28 -91 64 -158 115
-216 l39 -45 423 3 c233 2 427 7 432 11 13 14 7 192 -9 223 -7 16 -35 43 -61
60 -67 44 -97 74 -113 111 -12 27 -14 255 -14 1343 l0 1310 95 0 c88 0 98 2
120 25 24 23 25 30 25 150 0 120 -1 127 -25 150 -22 23 -32 25 -119 25 l-95 0
-3 311 -3 311 -24 19 c-20 16 -40 19 -135 19 -69 0 -120 -5 -136 -13z"/>
<path d="M30 7887 c-25 -12 -25 -15 -28 -151 -3 -158 0 -166 72 -215 24 -17
54 -46 66 -65 17 -28 83 -372 320 -1654 165 -890 306 -1667 315 -1727 19 -126
39 -191 68 -222 20 -23 24 -23 268 -23 289 0 280 -3 304 100 8 36 84 457 168
937 l152 872 158 -887 c87 -488 163 -907 168 -932 6 -25 20 -55 31 -67 21 -23
26 -23 259 -23 156 0 247 4 263 11 49 23 9 -177 431 2139 141 773 261 1423
268 1445 8 28 33 61 83 110 l72 70 7 97 c8 109 2 160 -22 179 -24 20 -631 26
-688 7 l-40 -13 0 -111 c0 -130 6 -143 91 -200 66 -45 94 -90 94 -153 0 -45
-274 -1600 -288 -1634 -8 -20 -303 1611 -302 1671 0 35 7 43 90 105 54 39 63
74 58 215 -3 71 -8 96 -21 110 -16 16 -59 17 -568 17 l-551 0 -19 -24 c-16
-20 -19 -40 -19 -141 0 -129 3 -137 86 -234 18 -21 40 -57 49 -80 8 -23 42
-187 75 -366 l59 -325 -92 -517 c-51 -285 -94 -518 -97 -518 -7 0 -319 1674
-321 1720 -2 69 2 80 45 129 52 59 61 98 53 228 -8 140 46 128 -570 131 -409
2 -527 -1 -547 -11z"/>
<path d="M4345 7296 c-189 -44 -344 -132 -474 -272 -305 -325 -446 -843 -428
-1564 11 -420 70 -722 192 -975 150 -310 409 -540 695 -617 72 -19 110 -23
245 -23 137 0 172 4 240 23 227 65 389 195 525 421 91 152 140 333 140 518 0
121 -14 158 -67 172 -57 16 -257 14 -298 -3 -42 -18 -51 -47 -59 -206 -3 -63
-13 -144 -20 -180 -54 -250 -195 -399 -381 -402 -137 -2 -236 95 -274 270 -7
36 -11 233 -11 607 l0 555 556 0 557 0 -6 283 c-4 186 -11 316 -22 382 -61
383 -171 623 -369 812 -95 91 -180 143 -291 180 -69 22 -100 26 -235 29 -107
3 -173 -1 -215 -10z m275 -336 c15 -11 36 -37 46 -57 18 -35 19 -72 22 -500
l3 -463 -161 0 -160 0 0 446 c0 321 3 458 12 487 14 46 66 103 100 110 41 9
109 -2 138 -23z"/>
<path d="M6130 7291 c-90 -29 -137 -58 -216 -133 -63 -60 -83 -87 -119 -162
-51 -109 -71 -184 -85 -337 -24 -250 22 -520 136 -785 87 -205 166 -353 389
-734 231 -394 302 -533 337 -664 41 -155 7 -247 -90 -246 -47 1 -105 35 -163
97 -67 70 -109 134 -174 262 -60 120 -90 166 -119 179 -66 30 -228 21 -268
-15 -10 -9 -18 -30 -18 -46 0 -48 129 -757 146 -804 19 -51 47 -63 153 -63 91
0 123 14 133 58 4 17 12 47 16 65 5 21 14 33 27 35 11 1 62 -23 114 -53 136
-81 224 -108 331 -103 103 6 177 32 259 93 205 151 304 433 288 820 -19 445
-111 681 -558 1426 -222 370 -339 603 -339 675 0 38 27 82 60 99 25 13 35 13
69 1 22 -7 58 -28 80 -46 52 -40 190 -225 264 -350 84 -145 107 -160 238 -160
113 0 139 16 139 85 0 63 -145 770 -164 799 -16 25 -20 26 -114 26 -111 0
-136 -11 -147 -63 -8 -33 -31 -67 -48 -67 -5 0 -55 22 -111 49 -55 27 -125 56
-155 65 -74 22 -219 20 -291 -3z"/>
<path d="M9700 7294 c-188 -40 -324 -118 -471 -270 -213 -222 -344 -536 -405
-969 -25 -179 -31 -684 -10 -877 29 -280 91 -519 181 -703 117 -239 321 -448
537 -550 130 -61 212 -78 388 -79 191 -1 271 15 410 85 298 149 512 522 509
889 -1 145 -31 170 -209 170 -148 0 -185 -10 -199 -53 -6 -18 -15 -97 -21
-177 -15 -219 -62 -358 -152 -457 -74 -79 -149 -113 -254 -114 -144 -2 -246
116 -274 316 -5 39 -10 305 -10 593 l0 522 560 0 560 0 0 174 c0 418 -55 739
-165 974 -135 286 -331 463 -577 522 -100 24 -297 26 -398 4z m268 -331 c41
-31 61 -64 72 -122 6 -31 10 -235 10 -477 l0 -424 -165 0 -165 0 0 425 c0 444
4 498 43 557 45 67 144 87 205 41z"/>
<path d="M12272 7279 c-115 -57 -162 -143 -279 -514 l-38 -120 -5 298 -5 299
-24 19 c-22 18 -44 19 -396 19 -213 0 -385 -4 -399 -10 -38 -14 -50 -46 -50
-140 0 -118 6 -132 63 -169 88 -57 81 65 81 -1375 0 -1421 5 -1324 -70 -1371
-22 -14 -45 -38 -51 -53 -6 -15 -9 -75 -7 -134 3 -96 5 -110 26 -130 l23 -23
529 0 c421 0 532 3 542 13 9 9 13 48 13 132 0 135 -6 150 -85 205 -24 17 -53
43 -64 58 l-21 28 0 1067 c0 827 3 1076 13 1108 19 63 47 94 87 94 38 0 49
-12 105 -111 48 -86 100 -119 187 -119 126 0 196 65 239 221 26 92 26 367 1
459 -38 138 -97 227 -172 261 -26 12 -64 19 -111 19 -59 0 -81 -5 -132 -31z"/>
<path d="M14311 7289 c-148 -38 -290 -127 -414 -259 l-67 -70 0 140 c0 127 -2
142 -20 160 -19 19 -33 20 -462 20 -244 0 -448 -4 -454 -8 -25 -16 -34 -55
-34 -144 0 -103 9 -127 61 -154 16 -8 39 -29 49 -47 19 -31 20 -60 20 -1325 0
-1081 -2 -1298 -14 -1326 -8 -18 -35 -51 -60 -72 -58 -48 -70 -88 -63 -207 3
-64 9 -93 21 -105 15 -15 65 -17 479 -20 495 -4 554 -1 589 28 20 16 23 29 27
111 4 122 -8 160 -64 200 -81 58 -75 -45 -75 1272 l0 1175 35 26 c131 101 266
99 317 -4 17 -33 18 -114 18 -1270 0 -1316 0 -1313 48 -1406 11 -22 39 -60 62
-86 l42 -48 356 0 c216 0 372 4 394 11 47 13 53 31 52 164 0 107 -14 150 -55
178 -58 41 -54 -56 -59 1352 l-5 1290 -27 81 c-63 184 -177 301 -337 346 -90
25 -260 24 -360 -3z"/>
<path d="M20180 7295 c-317 -53 -560 -203 -667 -412 -57 -111 -68 -159 -68
-298 0 -116 1 -123 34 -189 26 -53 43 -74 79 -97 64 -41 101 -49 223 -49 168
0 333 51 412 128 49 48 66 107 73 252 9 190 43 273 128 311 84 38 177 17 218
-50 22 -35 23 -42 23 -319 l0 -283 -100 -45 c-55 -25 -185 -79 -290 -121 -537
-212 -737 -365 -820 -624 -100 -316 -95 -909 10 -1224 68 -205 209 -353 392
-411 26 -8 95 -18 153 -21 88 -5 120 -2 190 16 144 36 232 90 393 241 43 40
79 71 80 69 2 -2 18 -34 35 -71 45 -93 110 -161 188 -198 188 -90 541 -76 680
26 35 26 54 82 54 161 0 60 -18 95 -75 145 l-44 39 -3 1192 c-4 1334 2 1230
-77 1392 -122 248 -342 387 -694 439 -126 19 -418 20 -527 1z m458 -2042 c-3
-769 -2 -748 -66 -817 -54 -57 -118 -69 -188 -35 -34 16 -49 32 -68 72 -44 90
-51 171 -50 557 0 574 24 686 168 801 52 43 179 118 199 119 4 0 6 -314 5
-697z"/>
<path d="M23277 7294 c-130 -31 -285 -125 -423 -256 l-74 -71 0 132 c0 127 -1
133 -25 156 l-24 25 -430 0 c-298 0 -438 -3 -455 -11 -38 -18 -49 -57 -44
-163 4 -103 14 -123 71 -153 15 -7 37 -28 47 -46 19 -31 20 -60 20 -1315 0
-1395 4 -1308 -55 -1362 -16 -14 -41 -45 -56 -69 -27 -41 -29 -53 -29 -135 0
-113 5 -132 39 -146 19 -7 174 -10 523 -8 471 3 497 4 517 22 19 17 21 30 21
138 l0 118 -55 60 c-30 32 -57 69 -60 82 -3 13 -4 550 -3 1193 l3 1170 80 40
c127 63 212 55 249 -25 8 -18 12 -378 16 -1295 5 -1233 6 -1272 25 -1325 11
-30 38 -82 60 -115 l41 -60 393 0 393 0 19 24 c16 20 19 40 19 140 l0 117 -41
39 c-85 82 -79 -24 -79 1250 0 794 3 1142 11 1170 39 140 268 185 341 66 l23
-36 5 -1275 c5 -1193 6 -1278 23 -1320 25 -63 61 -121 95 -153 l29 -28 376 3
376 3 23 23 c21 21 23 32 23 130 0 116 -2 121 -80 233 l-30 43 -5 1270 -5
1271 -23 75 c-81 262 -247 390 -509 390 -199 0 -370 -85 -584 -287 -51 -48
-94 -83 -96 -76 -2 6 -21 38 -41 72 -84 138 -196 233 -319 271 -78 24 -226 26
-316 4z"/>
<path d="M26415 7294 c-163 -36 -304 -115 -435 -244 -222 -219 -352 -503 -419
-915 -61 -375 -52 -897 20 -1250 108 -522 425 -911 828 -1017 46 -12 125 -22
201 -25 334 -15 591 115 774 390 113 169 164 328 173 532 9 216 -6 230 -240
223 -175 -4 -164 11 -186 -263 -25 -313 -150 -501 -356 -533 -112 -18 -201 25
-262 127 -61 101 -63 130 -63 745 l0 556 556 0 556 0 -5 278 c-5 283 -17 401
-57 571 -64 270 -171 473 -332 626 -97 93 -181 145 -293 182 -69 22 -100 26
-235 29 -113 3 -174 -1 -225 -12z m262 -323 c30 -14 48 -32 65 -63 23 -43 23
-44 26 -505 l3 -463 -161 0 -160 0 0 446 c0 489 2 505 57 560 47 47 103 55
170 25z"/>
<path d="M32035 7299 c-187 -37 -339 -120 -481 -265 -229 -231 -361 -557 -421
-1035 -24 -190 -23 -692 1 -874 24 -185 52 -312 97 -448 139 -421 424 -716
785 -813 55 -15 103 -19 234 -18 150 0 173 3 253 27 48 15 114 40 145 56 212
107 388 336 468 606 20 71 27 119 31 230 8 212 -3 225 -207 225 -120 0 -175
-12 -191 -42 -6 -11 -15 -82 -20 -157 -11 -176 -30 -267 -79 -369 -64 -135
-163 -216 -283 -231 -145 -19 -240 48 -299 210 -23 64 -23 66 -26 642 l-3 577
557 0 556 0 -5 288 c-6 351 -25 488 -98 712 -111 340 -320 572 -594 660 -57
18 -98 23 -220 26 -82 2 -172 -1 -200 -7z m255 -337 c14 -10 34 -36 45 -58 19
-37 20 -62 23 -501 l3 -463 -161 0 -161 0 3 463 c3 461 3 462 26 505 41 77
153 104 222 54z"/>
<path d="M34824 7290 c-141 -37 -276 -120 -401 -248 l-83 -83 0 145 c0 118 -3
147 -16 160 -14 14 -69 16 -457 16 -384 0 -445 -2 -465 -16 -21 -14 -22 -23
-22 -130 0 -126 -3 -120 79 -182 17 -13 35 -39 41 -60 16 -54 9 -2577 -7
-2613 -6 -14 -37 -51 -67 -81 l-56 -55 0 -116 c0 -132 5 -142 73 -152 23 -3
252 -5 509 -3 457 3 467 3 495 24 l28 21 0 122 0 122 -57 52 c-32 29 -62 65
-68 80 -7 19 -10 429 -10 1195 l1 1167 42 32 c130 98 259 96 311 -3 21 -39 21
-53 26 -1319 l5 -1280 31 -65 c17 -36 49 -84 72 -108 l40 -43 381 3 c449 4
414 -7 420 124 5 133 -4 169 -54 223 -24 26 -49 59 -54 75 -8 18 -11 427 -11
1277 0 1391 3 1322 -68 1468 -64 132 -171 220 -309 256 -82 21 -259 19 -349
-5z"/>
<path d="M38185 7299 c-243 -45 -457 -195 -614 -429 -72 -108 -98 -158 -147
-278 -178 -441 -215 -1222 -84 -1767 118 -491 402 -831 796 -951 82 -26 102
-28 259 -28 157 0 177 2 260 28 175 53 304 142 421 289 78 98 166 270 194 382
38 151 44 370 10 410 -20 24 -79 35 -190 35 -131 0 -177 -12 -191 -48 -6 -15
-15 -90 -20 -168 -15 -236 -66 -380 -170 -485 -40 -40 -74 -63 -114 -78 -69
-26 -166 -29 -217 -8 -47 20 -103 77 -134 139 -51 100 -54 138 -54 731 l0 547
560 0 560 0 0 98 c-1 637 -95 1015 -320 1295 -112 140 -258 235 -424 277 -86
22 -285 26 -381 9z m255 -338 c14 -10 34 -33 45 -52 19 -32 20 -55 23 -501 l3
-468 -161 0 -161 0 3 463 3 462 25 44 c44 77 152 103 220 52z"/>
<path d="M40763 7294 c-121 -43 -184 -151 -300 -519 l-38 -120 -5 293 -5 294
-24 19 c-23 19 -40 20 -412 17 l-388 -3 -23 -23 c-21 -21 -23 -31 -23 -134 l0
-111 34 -26 c77 -59 92 -77 101 -116 13 -56 13 -2520 0 -2565 -6 -22 -31 -54
-65 -86 l-55 -51 0 -120 c0 -116 1 -120 26 -144 l26 -24 522 0 c429 0 526 2
539 14 14 11 17 34 17 130 0 73 -5 125 -13 141 -7 13 -37 42 -67 63 -99 68
-90 -42 -90 1147 0 1106 1 1132 46 1182 44 48 87 40 125 -24 91 -151 124 -178
224 -178 112 0 190 65 231 193 26 78 31 373 10 470 -19 83 -61 177 -99 223
-58 69 -190 95 -294 58z"/>
<path d="M12320 2584 c-337 -64 -570 -278 -660 -609 -31 -114 -39 -373 -15
-500 55 -293 230 -510 488 -603 121 -44 211 -55 389 -49 168 5 246 21 390 79
130 53 122 26 126 436 2 191 0 362 -3 380 -3 18 -15 42 -26 53 -18 18 -35 19
-329 19 l-310 0 -10 -26 c-6 -14 -10 -45 -10 -69 0 -24 4 -55 10 -69 l10 -26
215 0 215 0 0 -249 0 -249 -49 -21 c-122 -52 -302 -68 -426 -36 -205 53 -360
211 -420 430 -26 94 -31 294 -10 396 48 238 184 408 383 480 60 22 83 24 222
24 150 -1 158 -2 245 -34 50 -18 120 -50 157 -72 110 -64 138 -50 138 69 -1
88 -25 117 -142 172 -119 56 -206 73 -388 76 -91 1 -176 0 -190 -2z"/>
<path d="M14532 2570 c-273 -72 -466 -296 -532 -620 -28 -134 -31 -370 -7
-506 54 -304 215 -510 460 -590 70 -23 103 -28 232 -32 128 -3 163 -1 238 17
105 25 219 75 269 120 31 27 38 40 43 84 3 29 2 70 -2 92 -12 56 -46 59 -117
12 -128 -85 -228 -117 -365 -117 -162 0 -262 40 -356 142 -65 70 -108 156
-134 269 -69 291 -11 626 135 788 97 108 195 151 347 151 134 0 239 -36 362
-124 88 -63 125 -44 125 65 0 65 -20 110 -62 143 -52 39 -174 92 -255 110
-101 23 -286 21 -381 -4z"/>
<path d="M17960 2584 c-337 -64 -570 -278 -660 -609 -31 -114 -39 -373 -15
-500 55 -293 230 -510 488 -603 121 -44 211 -55 389 -49 168 5 246 21 390 79
130 53 122 26 126 436 2 191 0 362 -3 380 -3 18 -15 42 -26 53 -18 18 -35 19
-329 19 l-310 0 -10 -26 c-6 -14 -10 -45 -10 -69 0 -24 4 -55 10 -69 l10 -26
215 0 215 0 0 -249 0 -249 -49 -21 c-122 -52 -302 -68 -426 -36 -205 53 -360
211 -420 430 -26 94 -31 294 -10 396 48 238 184 408 383 480 60 22 83 24 222
24 150 -1 158 -2 245 -34 50 -18 120 -50 157 -72 110 -64 138 -50 138 69 -1
88 -25 117 -142 172 -119 56 -206 73 -388 76 -91 1 -176 0 -190 -2z"/>
<path d="M8547 2563 c-4 -3 -7 -21 -7 -38 0 -25 463 -1663 472 -1670 35 -28
258 -37 292 -12 19 14 33 64 256 940 52 202 97 367 100 367 3 0 86 -289 184
-642 135 -491 182 -647 198 -660 17 -15 40 -18 138 -18 97 0 122 3 139 18 17
13 70 186 256 832 129 448 235 826 235 840 0 15 -5 31 -12 38 -17 17 -192 16
-210 -1 -7 -8 -99 -338 -203 -735 -104 -396 -190 -720 -191 -719 -1 1 -90 324
-198 717 -109 393 -204 722 -213 732 -13 15 -33 18 -113 18 -61 0 -102 -4
-113 -12 -11 -9 -74 -242 -199 -731 -120 -469 -186 -711 -191 -700 -4 10 -92
335 -196 722 -106 393 -195 707 -203 712 -15 10 -212 12 -221 2z"/>
<path d="M31718 2429 c-16 -9 -18 -28 -18 -164 l0 -155 -95 0 c-109 0 -115 -4
-115 -90 0 -85 6 -90 115 -90 l94 0 3 -427 c4 -371 6 -435 21 -480 26 -78 72
-133 142 -168 53 -27 72 -30 167 -33 123 -4 207 14 233 50 17 25 21 143 5 168
-8 13 -15 13 -57 0 -26 -7 -75 -16 -108 -18 -78 -5 -117 15 -147 77 -23 45
-23 54 -26 439 l-3 392 165 0 c153 0 166 1 176 19 14 27 13 134 -2 149 -8 8
-62 12 -175 12 l-163 0 0 153 c0 106 -4 157 -12 165 -15 15 -175 16 -200 1z"/>
<path d="M19950 2116 c-116 -27 -214 -69 -256 -111 -20 -20 -24 -34 -24 -88 0
-99 27 -109 138 -53 106 53 192 76 289 76 111 0 158 -15 209 -65 49 -49 64
-100 64 -213 l0 -80 -187 -5 c-205 -5 -263 -15 -369 -67 -77 -38 -139 -99
-173 -170 -23 -49 -26 -67 -26 -165 0 -100 2 -115 28 -167 35 -71 109 -139
185 -170 50 -20 75 -23 193 -23 l135 0 75 37 c42 21 96 56 122 79 l47 41 0
-59 c0 -33 5 -64 12 -71 14 -14 155 -16 176 -3 10 6 12 106 10 502 -3 482 -4
495 -25 553 -39 103 -102 165 -212 207 -47 19 -79 23 -206 25 -96 2 -170 -2
-205 -10z m420 -827 l0 -130 -57 -55 c-83 -79 -158 -114 -245 -114 -143 0
-220 68 -222 195 -2 131 92 209 270 224 49 5 126 9 172 10 l82 1 0 -131z"/>
<path d="M22070 2107 c-67 -28 -128 -69 -192 -129 l-48 -44 0 68 c0 103 -4
108 -103 108 -51 0 -88 -5 -95 -12 -9 -9 -12 -162 -12 -628 0 -466 3 -619 12
-628 15 -15 171 -16 199 -2 18 10 19 26 19 441 l0 429 81 85 c96 100 157 135
236 135 70 0 111 -18 155 -69 70 -82 72 -95 76 -576 2 -283 7 -434 14 -442 13
-16 170 -18 199 -3 18 10 19 26 19 442 l0 431 88 88 c100 100 151 128 230 129
68 0 108 -18 154 -68 69 -76 71 -94 76 -577 2 -279 7 -434 14 -442 13 -16 170
-18 199 -3 18 10 19 26 19 438 -1 471 -7 536 -58 645 -36 76 -96 138 -170 174
-48 23 -72 28 -158 31 -152 6 -237 -30 -381 -162 l-62 -57 -21 41 c-30 59 -93
118 -159 148 -48 23 -72 27 -166 30 -97 2 -117 0 -165 -21z"/>
<path d="M24753 2115 c-193 -52 -332 -202 -389 -420 -26 -99 -27 -358 -1 -468
50 -210 189 -355 389 -402 144 -34 409 -13 560 45 72 27 88 49 88 121 0 105
-9 108 -168 52 -105 -37 -110 -38 -252 -38 -131 0 -150 2 -198 24 -112 51
-180 161 -197 323 l-7 67 410 3 410 3 26 24 c24 23 26 30 26 120 -1 289 -131
485 -363 547 -68 18 -265 17 -334 -1z m278 -180 c103 -35 175 -140 186 -273
l6 -72 -322 0 -322 0 7 48 c21 143 106 260 219 300 46 16 175 14 226 -3z"/>
<path d="M28090 2109 c-67 -26 -139 -73 -202 -132 l-48 -44 0 69 c0 103 -4
108 -103 108 -51 0 -88 -5 -95 -12 -9 -9 -12 -162 -12 -628 0 -466 3 -619 12
-628 15 -15 171 -16 199 -2 18 10 19 26 19 442 l0 431 83 83 c102 101 163 134
252 134 75 0 131 -25 173 -76 65 -79 66 -84 72 -567 4 -374 7 -439 20 -447 22
-14 184 -12 198 2 19 19 17 851 -2 951 -28 145 -105 250 -224 305 -50 23 -72
27 -172 29 -98 3 -123 0 -170 -18z"/>
<path d="M30013 2115 c-193 -52 -332 -202 -389 -420 -26 -99 -27 -358 -1 -468
50 -210 189 -355 389 -402 144 -34 409 -13 560 45 72 27 88 49 88 121 0 105
-9 108 -168 52 -105 -37 -110 -38 -252 -38 -131 0 -150 2 -198 24 -112 51
-180 161 -197 323 l-7 67 410 3 410 3 26 24 c24 23 26 30 26 120 -1 289 -131
485 -363 547 -68 18 -265 17 -334 -1z m278 -180 c103 -35 175 -140 186 -273
l6 -72 -322 0 -322 0 7 48 c21 143 106 260 219 300 46 16 175 14 226 -3z"/>
</g>
</svg>
