<?xml version="1.0" standalone="no"?>
<!DOCTYPE svg PUBLIC "-//W3C//DTD SVG 20010904//EN"
 "http://www.w3.org/TR/2001/REC-SVG-20010904/DTD/svg10.dtd">
<svg version="1.0" xmlns="http://www.w3.org/2000/svg"
 width="640.000000pt" height="640.000000pt" viewBox="0 0 640.000000 640.000000"
 preserveAspectRatio="xMidYMid meet">

<g transform="translate(0.000000,640.000000) scale(0.100000,-0.100000)"
fill="#000000" stroke="none">
<path d="M4371 5198 c-44 -80 -159 -195 -242 -241 -36 -20 -71 -37 -76 -37 -6
0 -11 31 -12 74 -2 97 -45 256 -69 256 -5 0 -19 -12 -33 -26 -54 -60 -310
-212 -418 -249 -90 -30 -121 -35 -291 -39 -80 -2 -182 -11 -228 -21 -416 -82
-764 -349 -954 -730 -25 -49 -51 -107 -57 -127 l-13 -38 -164 0 -163 0 -3
-332 c-2 -183 -2 -377 0 -431 l3 -97 207 2 207 3 6 310 c7 325 10 350 59 497
62 184 162 340 307 479 300 286 712 393 1118 290 452 -115 806 -508 875 -970
6 -36 11 -187 12 -336 l3 -270 210 0 210 0 0 425 0 425 -167 3 c-163 2 -167 3
-174 25 -28 95 -121 266 -192 355 -19 24 -33 44 -31 46 2 1 16 10 31 19 88 55
170 331 154 516 -11 117 -54 281 -75 281 -3 0 -21 -28 -40 -62z"/>
<path d="M2320 3915 c0 -9 56 -166 231 -645 l97 -265 217 0 216 0 40 95 c21
52 38 100 37 106 -3 10 -88 84 -503 434 -56 47 -123 103 -150 125 -27 22 -70
58 -95 80 -25 21 -55 48 -67 59 -13 11 -23 15 -23 11z"/>
<path d="M4171 3906 c-8 -9 -118 -103 -245 -210 -348 -291 -518 -435 -548
-465 l-28 -26 42 -103 41 -102 215 2 216 3 17 45 c54 134 309 854 307 862 -2
6 -10 3 -17 -6z"/>
<path d="M1500 3590 l0 -310 55 0 55 0 0 310 0 310 -55 0 -55 0 0 -310z"/>
<path d="M4900 3590 l0 -310 55 0 55 0 0 310 0 310 -55 0 -55 0 0 -310z"/>
<path d="M3160 2855 c0 -56 0 -56 28 -53 25 3 27 6 27 53 0 47 -2 50 -27 53
-28 3 -28 3 -28 -53z"/>
<path d="M3300 2855 c0 -52 1 -55 25 -55 24 0 25 3 25 55 0 52 -1 55 -25 55
-24 0 -25 -3 -25 -55z"/>
<path d="M1543 2673 c-9 -27 -45 -64 -70 -74 -23 -9 -32 -44 -13 -51 6 -2 12
-79 15 -192 3 -104 10 -197 16 -207 8 -15 21 -19 69 -19 64 0 73 9 45 46 -11
15 -14 56 -15 191 0 162 1 173 20 183 11 6 20 18 20 26 0 9 -9 18 -20 21 -16
4 -20 14 -20 49 0 38 -3 44 -20 44 -11 0 -23 -8 -27 -17z"/>
<path d="M2810 2661 c-96 -79 -124 -281 -60 -430 29 -66 70 -101 119 -101 20
0 46 7 57 15 24 18 39 19 57 1 8 -8 23 -16 33 -18 18 -3 19 6 22 132 2 109 5
137 18 147 9 6 14 20 12 30 -3 15 -15 18 -91 21 -72 2 -88 0 -93 -13 -4 -9 1
-24 10 -34 12 -14 16 -39 16 -117 0 -104 -8 -131 -34 -121 -14 6 -16 33 -16
220 0 231 4 252 51 245 17 -2 32 -18 52 -55 26 -48 51 -66 69 -48 3 3 -2 39
-10 80 -15 77 -30 93 -60 63 -9 -9 -15 -9 -24 0 -23 23 -91 14 -128 -17z"/>
<path d="M4485 2664 c-54 -50 -70 -106 -70 -244 0 -147 19 -214 73 -261 43
-38 108 -41 140 -6 32 34 46 87 28 106 -23 22 -42 7 -55 -43 -6 -25 -15 -46
-19 -46 -28 0 -32 30 -32 216 0 201 5 257 24 251 14 -4 33 -43 41 -80 6 -30
30 -46 46 -30 5 5 6 42 3 85 l-7 75 -73 1 c-64 0 -76 -2 -99 -24z"/>
<path d="M5413 2660 c-6 -16 -27 -39 -47 -51 -33 -19 -51 -59 -26 -59 6 0 10
-68 10 -182 0 -228 2 -233 84 -233 63 0 78 12 51 38 -22 23 -23 377 0 377 9 0
15 9 15 25 0 16 -6 25 -15 25 -11 0 -15 12 -15 45 0 40 -2 45 -23 45 -16 0
-26 -9 -34 -30z"/>
<path d="M450 2657 c0 -13 5 -28 10 -33 8 -8 99 -453 100 -486 0 -14 78 -9 83
5 3 7 13 59 23 115 10 57 21 97 24 90 4 -7 15 -59 25 -116 l19 -103 40 3 41 3
22 120 c12 66 31 172 43 235 12 63 28 127 36 143 21 37 11 47 -47 47 -41 0
-49 -3 -49 -19 0 -10 6 -24 14 -30 11 -9 10 -27 -5 -113 -10 -55 -20 -103 -22
-104 -2 -2 -11 44 -21 102 -13 77 -15 109 -7 117 6 6 11 19 11 29 0 16 -10 18
-79 18 -86 0 -97 -7 -76 -50 22 -43 28 -114 14 -176 l-13 -59 -21 110 c-13 66
-18 117 -13 127 21 42 12 48 -72 48 -77 0 -80 -1 -80 -23z"/>
<path d="M979 2560 c-47 -49 -64 -116 -57 -226 8 -133 62 -204 155 -204 52 0
98 36 114 90 15 48 6 72 -23 68 -18 -2 -24 -12 -29 -40 -7 -46 -25 -68 -54
-68 -30 0 -35 16 -35 111 l0 79 75 0 75 0 0 43 c0 65 -19 118 -55 154 -28 28
-40 33 -81 33 -42 0 -51 -4 -85 -40z m111 -81 c0 -52 -2 -59 -20 -59 -18 0
-20 7 -20 63 0 69 6 83 27 66 8 -7 13 -33 13 -70z"/>
<path d="M1250 2573 c-14 -19 -20 -41 -20 -79 0 -47 8 -70 61 -170 56 -107 66
-144 39 -144 -5 0 -21 18 -35 40 -23 37 -47 50 -58 33 -3 -5 0 -34 5 -65 8
-46 14 -58 28 -58 10 0 20 5 22 11 3 9 9 9 25 0 67 -35 113 8 113 104 0 70 -9
96 -74 210 -25 44 -46 83 -46 87 0 21 33 4 51 -27 15 -25 28 -35 46 -35 21 0
24 4 20 23 -3 12 -9 38 -12 58 l-7 35 -68 2 c-63 1 -71 -1 -90 -25z"/>
<path d="M1709 2560 c-47 -49 -64 -116 -57 -226 8 -138 69 -212 164 -201 54 6
90 36 106 88 14 47 5 71 -24 67 -17 -2 -24 -12 -30 -42 -10 -49 -24 -66 -53
-66 -30 0 -35 16 -35 111 l0 79 76 0 77 0 -6 65 c-11 111 -54 165 -135 165
-40 0 -50 -5 -83 -40z m109 -78 c3 -57 1 -62 -18 -62 -18 0 -20 6 -20 66 0 57
2 65 18 62 14 -3 18 -16 20 -66z"/>
<path d="M1966 2573 c8 -28 11 -367 3 -413 -4 -25 -3 -25 69 -28 80 -3 100 11
67 48 -15 16 -16 36 -12 167 3 81 6 150 6 152 1 2 10 -4 20 -13 13 -11 27 -15
40 -11 17 5 21 15 21 54 0 52 -12 71 -46 71 -16 0 -26 -10 -37 -37 l-16 -38 0
38 -1 37 -61 0 -61 0 8 -27z"/>
<path d="M2203 2584 c-3 -8 -1 -20 6 -27 7 -7 11 -71 11 -192 0 -121 -4 -185
-11 -192 -7 -7 -9 -19 -6 -27 5 -12 22 -16 74 -16 l68 0 -4 195 c-3 193 -3
195 18 195 12 0 21 -6 21 -12 0 -74 12 -347 16 -361 5 -15 15 -17 62 -15 54 3
57 4 53 28 -2 14 -6 112 -10 218 -5 176 -8 195 -25 208 -34 24 -125 10 -127
-20 0 -6 -4 -1 -9 12 -8 19 -16 22 -70 22 -46 0 -62 -4 -67 -16z"/>
<path d="M3153 2585 c-37 -16 -53 -42 -53 -85 0 -35 28 -52 69 -41 27 8 37 21
46 64 4 18 12 27 25 27 17 0 20 -7 20 -43 l0 -42 -72 -35 c-91 -43 -100 -59
-96 -167 3 -70 6 -85 27 -107 30 -32 78 -34 114 -6 l26 21 21 -21 c16 -16 31
-20 63 -18 l41 3 -3 189 c-1 104 -7 200 -12 213 -21 56 -138 82 -216 48z m107
-267 c0 -105 -11 -135 -36 -103 -22 28 -13 164 12 182 10 7 19 13 21 13 2 0 3
-42 3 -92z"/>
<path d="M3420 2582 c0 -10 5 -23 10 -28 10 -10 9 -329 -1 -394 -4 -25 -3 -25
70 -28 l73 -3 -6 33 c-7 40 -7 338 0 350 3 4 12 8 20 8 12 0 14 -29 14 -176 0
-102 4 -183 10 -195 9 -15 22 -19 63 -19 l52 0 -4 190 c-3 169 -1 190 13 196
9 4 18 5 20 3 2 -2 6 -86 8 -187 5 -208 3 -204 83 -200 44 3 50 5 46 23 -2 11
-6 109 -10 218 -5 181 -8 200 -25 213 -29 20 -79 17 -110 -7 l-27 -21 -23 21
c-12 11 -34 21 -49 21 -32 0 -77 -19 -78 -34 0 -6 -4 -1 -9 12 -8 20 -16 22
-75 22 -56 0 -65 -3 -65 -18z"/>
<path d="M4000 2574 c-41 -35 -58 -71 -69 -146 -25 -180 48 -309 166 -295 53
6 77 26 99 83 19 51 13 77 -17 72 -15 -2 -25 -17 -37 -53 -14 -42 -21 -50 -44
-53 -36 -4 -50 30 -47 108 3 81 2 80 85 80 l74 0 0 30 c0 66 -22 134 -55 167
-44 44 -107 46 -155 7z m96 -47 c10 -42 0 -102 -17 -105 -13 -2 -18 6 -20 35
-6 57 1 93 16 93 8 0 17 -11 21 -23z"/>
<path d="M4750 2562 c-49 -49 -63 -102 -58 -217 6 -144 58 -215 156 -215 38 0
49 5 78 35 52 56 57 133 8 123 -12 -2 -21 -16 -26 -42 -11 -51 -25 -68 -57
-64 -26 3 -26 4 -29 96 l-3 92 77 0 77 0 -6 65 c-11 111 -54 165 -135 165 -38
0 -50 -5 -82 -38z m108 -80 c3 -57 1 -62 -18 -62 -18 0 -20 6 -20 66 0 57 2
65 18 62 14 -3 18 -16 20 -66z"/>
<path d="M5005 2365 l0 -236 70 3 c68 3 70 4 66 28 -2 14 -4 99 -5 190 -1 164
-1 165 22 168 l22 3 0 -176 c0 -102 4 -184 10 -196 9 -15 22 -19 66 -19 l56 0
-6 33 c-4 17 -7 114 -9 213 -2 163 -4 184 -21 203 -25 28 -84 28 -120 0 l-26
-20 0 20 c0 19 -6 21 -62 21 l-63 0 0 -235z"/>
<path d="M5590 2562 c-50 -49 -63 -101 -58 -222 4 -108 21 -150 78 -187 82
-56 187 -5 193 94 2 34 -1 38 -21 38 -20 0 -27 -9 -40 -50 -15 -45 -20 -50
-46 -50 -37 0 -44 23 -38 118 l4 67 74 0 74 0 0 30 c0 66 -22 134 -55 167 -28
28 -40 33 -80 33 -41 0 -52 -5 -85 -38z m108 -80 c3 -57 1 -62 -18 -62 -18 0
-20 6 -20 66 0 57 2 65 18 62 14 -3 18 -16 20 -66z"/>
<path d="M5840 2576 c0 -14 5 -28 10 -31 6 -4 10 -75 10 -180 0 -105 -4 -176
-10 -180 -5 -3 -10 -17 -10 -31 0 -25 1 -25 77 -22 63 2 77 6 79 20 1 9 -4 22
-12 29 -11 9 -14 44 -14 159 0 80 3 150 7 153 3 4 15 -1 25 -10 29 -26 52 -6
56 46 4 48 -10 71 -43 71 -16 0 -27 -9 -36 -32 l-14 -33 -5 30 c-5 29 -7 30
-63 33 -55 3 -57 2 -57 -22z"/>
<path d="M1620 1941 c0 -10 4 -31 9 -47 5 -16 19 -62 31 -102 18 -64 24 -73
42 -70 19 2 26 17 44 88 12 47 24 78 27 70 3 -8 14 -46 25 -85 15 -55 23 -71
39 -73 18 -3 24 7 41 65 36 119 46 162 39 170 -14 13 -28 -14 -49 -93 -11 -43
-24 -82 -27 -86 -4 -4 -17 33 -30 82 -35 133 -52 128 -89 -22 -9 -38 -19 -68
-22 -68 -4 0 -14 35 -24 78 -10 42 -23 85 -28 95 -12 22 -28 22 -28 -2z"/>
<path d="M2101 1947 c-41 -21 -63 -60 -63 -111 0 -79 39 -118 118 -118 63 0
76 14 72 76 l-3 51 -42 0 c-46 0 -60 -18 -18 -23 21 -3 25 -9 25 -37 0 -39
-15 -47 -63 -34 -51 14 -72 75 -46 132 21 45 68 56 132 32 11 -5 17 -2 17 8 0
16 -48 37 -84 37 -12 0 -32 -6 -45 -13z"/>
<path d="M2409 1945 c-60 -33 -71 -172 -16 -210 25 -17 89 -20 118 -5 34 19
20 29 -34 23 -67 -7 -82 9 -82 82 0 81 48 118 105 83 24 -16 39 -2 19 18 -22
22 -79 27 -110 9z"/>
<path d="M2875 1951 c-46 -20 -69 -59 -69 -117 -1 -50 2 -58 32 -85 26 -24 41
-29 81 -29 62 0 76 14 76 76 l0 49 -49 3 c-36 2 -47 0 -44 -10 3 -7 17 -14 31
-16 23 -3 27 -8 27 -36 0 -26 -5 -35 -21 -39 -31 -8 -75 11 -88 39 -40 89 32
175 111 133 26 -14 45 3 24 20 -20 16 -85 23 -111 12z"/>
<path d="M4770 1920 c0 -10 -8 -24 -17 -30 -17 -10 -17 -10 0 -20 13 -8 17
-24 17 -65 0 -29 3 -60 6 -69 8 -21 74 -22 74 -1 0 9 -8 14 -22 12 -22 -2 -23
2 -23 58 0 55 2 60 23 63 30 5 28 22 -3 22 -20 0 -25 5 -25 25 0 16 -6 25 -15
25 -8 0 -15 -9 -15 -20z"/>
<path d="M3161 1891 c-14 -3 -27 -13 -29 -20 -3 -10 5 -12 35 -6 29 4 43 2 52
-9 18 -21 5 -36 -30 -36 -30 0 -69 -30 -69 -53 0 -27 26 -50 56 -48 16 1 41 2
57 2 27 0 27 0 27 67 0 39 -5 75 -12 85 -16 19 -54 28 -87 18z m66 -107 c7
-19 -21 -44 -48 -44 -24 0 -31 26 -13 45 20 20 53 19 61 -1z"/>
<path d="M3457 1889 c-9 -6 -26 -7 -37 -4 -19 6 -20 2 -20 -79 0 -70 3 -86 15
-86 12 0 15 14 15 65 0 55 3 66 21 75 35 19 49 -3 49 -76 0 -50 3 -64 15 -64
12 0 15 13 15 60 0 53 3 61 25 76 39 26 55 5 55 -72 0 -50 3 -64 15 -64 12 0
15 14 15 68 0 93 -29 125 -85 96 -23 -12 -30 -12 -48 1 -25 18 -26 18 -50 4z"/>
<path d="M3813 1890 c-30 -12 -43 -41 -43 -93 0 -56 24 -80 80 -79 43 1 60 7
60 23 0 5 -16 7 -38 3 -29 -4 -43 -2 -55 11 -33 33 -21 45 43 45 41 0 60 4 60
13 -1 33 -15 59 -41 72 -32 17 -35 17 -66 5z m66 -39 c14 -25 5 -31 -41 -31
-24 0 -38 5 -38 13 0 37 62 51 79 18z"/>
<path d="M4275 1890 c-11 -4 -30 -6 -42 -3 -22 5 -23 3 -23 -82 0 -77 2 -86
18 -83 14 3 18 16 20 66 3 56 6 64 28 74 35 16 44 3 46 -75 2 -59 4 -67 21
-67 18 0 19 6 15 71 -3 60 -8 74 -27 90 -26 21 -27 21 -56 9z"/>
<path d="M4530 1887 c-52 -26 -64 -112 -20 -152 29 -26 120 -22 120 6 0 5 -17
7 -40 3 -44 -7 -70 6 -70 37 0 17 8 19 61 19 58 0 60 1 54 23 -4 12 -9 29 -11
38 -4 14 -44 39 -62 39 -4 0 -18 -6 -32 -13z m58 -29 c24 -24 13 -38 -28 -38
-26 0 -40 5 -40 13 0 18 21 37 40 37 9 0 21 -5 28 -12z"/>
</g>
</svg>
